<svg xmlns="http://www.w3.org/2000/svg" viewBox="0 0 186.79 199.5"><title>club</title><g id="Layer_2" data-name="Layer 2"><g id="Layer_1-2" data-name="Layer 1"><path id="path147-0-8-1-6-1-1-0-9-1-8" d="M93.38,0c-40.75.89-59,46.77-28.85,82.41,4.38,5.19,4.83,8.18-3.18,3.18C41,72,2.06,80.94.06,122.48-2.4,173.67,69.12,188.42,82.55,134c.71-5.74,5.38-5.61,4.25,2.54-1.22,22.12-8.13,42.8-17.63,63h48.45c-9.49-20.17-16.4-40.85-17.63-63-1.12-8.15,3.54-8.28,4.25-2.54,13.43,54.43,85,39.68,82.49-11.51-2-41.54-41-50.48-61.28-36.89-8,5-7.57,2-3.19-3.18C152.44,46.77,134.17.89,93.41,0h0Z"/></g></g></svg>