<?xml version="1.0" encoding="UTF-8"?>
<svg width="92px" height="85px" viewBox="0 0 92 85" version="1.1" xmlns="http://www.w3.org/2000/svg" xmlns:xlink="http://www.w3.org/1999/xlink">
    <!-- Generator: Sketch 53.2 (72643) - https://sketchapp.com -->
    <title>Group 3</title>
    <desc>Created with Sketch.</desc>
    <g id="Onboarding" stroke="none" stroke-width="1" fill="none" fill-rule="evenodd">
        <g id="iPhone-SE-Copy-6" transform="translate(-117.000000, -47.000000)">
            <g id="Group-3" transform="translate(117.000000, 47.000000)">
                <path d="M91.0725553,74.1739526 L51.9950043,3.60868247 C50.7584114,1.37557569 48.4729691,0 45.9997832,0 C43.5265973,0 41.241155,1.37557569 40.0045621,3.60868247 L0.927444706,74.1739526 C-0.309148235,76.4070594 -0.309148235,79.1582107 0.927444706,81.3913175 C2.16403765,83.6244243 4.44947993,85 6.92266581,85 L85.0773342,85 C87.5505201,85 89.8359624,83.6244243 91.0725553,81.3913175 C92.3091482,79.1582107 92.3091482,76.4070594 91.0725553,74.1739526" id="Fill-1" fill="#FFCD00"></path>
                <path d="M47.9339988,55.9336419 C47.5578735,57.697073 46.6173311,58.7177927 45.8646224,58.7177927 C45.018455,58.7177927 44.1718294,57.697073 44.0779126,56.5832319 C43.2312871,52.0356501 40.9740771,35.6087539 40.9740771,30.5969209 C40.9740771,27.2558496 42.3851197,22.8013893 46.5234143,22.8013893 C51.0378343,22.8013893 51.6022513,27.6269793 51.6022513,30.2257912 C51.6022513,34.4949128 48.5923326,52.4067798 47.9339988,55.9336419" id="Path" fill="#4D2A00"></path>
                <path d="M45.6767888,77.8366223 C42.7607869,77.8366223 40.2213684,75.7947309 40.2213684,71.9894085 C40.2213684,67.9056257 43.5134956,66.1426467 45.9585392,66.1426467 C49.9094584,66.1426467 51.5083345,69.3910486 51.5083345,72.0825299 C51.5083345,75.5162706 48.968916,77.8366223 45.6767888,77.8366223" id="Path" fill="#4D2A00"></path>
            </g>
        </g>
    </g>
</svg>