<?xml version="1.0" encoding="utf-8"?>
<!-- Generator: Adobe Illustrator 23.0.1, SVG Export Plug-In . SVG Version: 6.00 Build 0)  -->
<svg version="1.1" id="Layer_1" xmlns="http://www.w3.org/2000/svg" xmlns:xlink="http://www.w3.org/1999/xlink" x="0px" y="0px"
	 viewBox="0 0 22.2 22.1" style="enable-background:new 0 0 22.2 22.1;" xml:space="preserve">
<style type="text/css">
	.st0{fill:#D4A8A8;}
</style>
<path class="st0" d="M1.1,0c-0.6,0-1,0.4-1,1v0.1V7c0,0.6,0.4,1,1,1s1-0.4,1-1l0,0V3.4l4.8,4.8c0.4,0.4,1,0.4,1.4,0
	c0.4-0.4,0.4-1,0-1.4l0,0L3.5,2h3.6c0.6,0,1-0.4,1-1s-0.4-1-1-1l0,0H1.1L1.1,0z M21.1,0H21h-5.9c-0.6,0-1,0.4-1,1s0.4,1,1,1l0,0h3.6
	l-4.8,4.8c-0.4,0.4-0.4,1,0,1.4c0.4,0.4,1,0.4,1.4,0l0,0l4.8-4.8V7c0,0.6,0.4,1,1,1s1-0.4,1-1l0,0V1.1C22.2,0.6,21.8,0,21.2,0H21.1z
	 M7.6,13.5c-0.3,0-0.5,0.1-0.7,0.3l-4.8,4.8V15c0-0.6-0.4-1-1-1l0,0c-0.6,0-1,0.5-1,1v5.8C0,21.3,0.4,21.9,0.9,22c0.1,0,0.2,0,0.3,0
	h5.9c0.6,0,1-0.4,1-1s-0.4-1-1-1l0,0H3.5l4.8-4.8c0.4-0.4,0.4-1,0-1.4C8.1,13.6,7.9,13.5,7.6,13.5z M14.6,13.5c-0.6,0-1,0.4-1,1
	c0,0.3,0.1,0.5,0.3,0.7l4.8,4.8h-3.6c-0.6,0-1,0.4-1,1s0.4,1,1,1l0,0h5.8c0.5,0.1,1.1-0.3,1.2-0.8c0-0.1,0-0.2,0-0.3V15
	c0-0.6-0.4-1-1-1l0,0c-0.6,0-1,0.5-1,1v3.6l-4.8-4.8C15.1,13.6,14.9,13.5,14.6,13.5z"/>
</svg>
