<svg xmlns="http://www.w3.org/2000/svg" xmlns:xlink="http://www.w3.org/1999/xlink" viewBox="0 0 186.22 186.22"><defs><style>.cls-1{fill:url(#radial-gradient);}.cls-2{fill:url(#linear-gradient);}.cls-3{fill:url(#linear-gradient-2);}.cls-4{fill:url(#linear-gradient-3);}.cls-5{fill:url(#linear-gradient-4);}.cls-6{fill:url(#linear-gradient-5);}.cls-7{fill:url(#linear-gradient-6);}.cls-8{fill:url(#linear-gradient-7);}.cls-9{fill:url(#linear-gradient-8);}.cls-10{fill:url(#radial-gradient-2);}.cls-11{fill:url(#linear-gradient-9);}.cls-12{fill:url(#radial-gradient-3);}.cls-13{fill:url(#radial-gradient-4);}.cls-14{fill:url(#radial-gradient-5);}.cls-15{fill:url(#radial-gradient-6);}.cls-16{fill:url(#radial-gradient-7);}.cls-17{fill:url(#radial-gradient-8);}.cls-18{fill:url(#radial-gradient-9);}.cls-19{fill:url(#radial-gradient-10);}.cls-20{fill:url(#radial-gradient-11);}.cls-21{fill:url(#radial-gradient-12);}.cls-22{fill:url(#radial-gradient-13);}.cls-23{fill:url(#radial-gradient-14);}.cls-24{fill:url(#radial-gradient-15);}.cls-25{fill:url(#radial-gradient-16);}.cls-26{fill:url(#radial-gradient-17);}.cls-27{fill:url(#radial-gradient-18);}.cls-28{fill:url(#radial-gradient-19);}.cls-29{fill:url(#radial-gradient-20);}.cls-30{fill:url(#radial-gradient-21);}.cls-31{fill:url(#radial-gradient-22);}.cls-32{fill:url(#radial-gradient-23);}.cls-33{fill:url(#radial-gradient-24);}.cls-34{fill:url(#radial-gradient-25);}.cls-35{fill:url(#radial-gradient-26);}.cls-36{fill:url(#radial-gradient-27);}.cls-37{fill:url(#radial-gradient-28);}.cls-38{fill:url(#radial-gradient-29);}.cls-39{fill:url(#radial-gradient-30);}.cls-40{fill:url(#radial-gradient-31);}.cls-41{fill:url(#radial-gradient-32);}.cls-42{fill:url(#radial-gradient-33);}.cls-43{fill:url(#radial-gradient-34);}.cls-44{fill:url(#radial-gradient-35);}.cls-45{fill:url(#radial-gradient-36);}.cls-46{fill:url(#radial-gradient-37);}.cls-47{fill:url(#radial-gradient-38);}.cls-48{fill:url(#radial-gradient-39);}.cls-49{fill:url(#radial-gradient-40);}.cls-50{fill:url(#radial-gradient-41);}.cls-51{fill:url(#radial-gradient-42);}.cls-52{fill:url(#radial-gradient-43);}.cls-53{fill:url(#radial-gradient-44);}.cls-54{fill:url(#radial-gradient-45);}.cls-55{fill:url(#radial-gradient-46);}.cls-56{fill:url(#radial-gradient-47);}.cls-57{fill:url(#radial-gradient-48);}.cls-58{fill:url(#radial-gradient-49);}.cls-59{fill:url(#radial-gradient-50);}.cls-60{fill:url(#radial-gradient-51);}.cls-61{fill:url(#radial-gradient-52);}.cls-62{fill:url(#radial-gradient-53);}.cls-63{fill:url(#radial-gradient-54);}.cls-64{fill:url(#radial-gradient-55);}.cls-65{fill:url(#radial-gradient-56);}.cls-66{fill:url(#radial-gradient-57);}.cls-67{fill:url(#radial-gradient-58);}.cls-68{fill:url(#radial-gradient-59);}.cls-69{fill:url(#radial-gradient-60);}.cls-70{fill:url(#radial-gradient-61);}.cls-71{fill:url(#radial-gradient-62);}.cls-72{fill:url(#radial-gradient-63);}.cls-73{fill:url(#radial-gradient-64);}.cls-74{fill:url(#radial-gradient-65);}.cls-75{fill:url(#radial-gradient-66);}.cls-76{fill:url(#radial-gradient-67);}.cls-77{fill:url(#radial-gradient-68);}.cls-78{fill:url(#radial-gradient-69);}.cls-79{fill:url(#radial-gradient-70);}.cls-80{fill:url(#radial-gradient-71);}.cls-81{fill:url(#radial-gradient-72);}.cls-82{fill:url(#radial-gradient-73);}.cls-83{fill:url(#radial-gradient-74);}.cls-84{fill:#fdb721;}.cls-85{fill:url(#linear-gradient-10);}.cls-86{fill:url(#linear-gradient-11);}.cls-87{fill:url(#linear-gradient-12);}.cls-88{fill:url(#linear-gradient-13);}</style><radialGradient id="radial-gradient" cx="69.28" cy="6.14" r="49.19" gradientTransform="translate(53.47 10.12) scale(1.4)" gradientUnits="userSpaceOnUse"><stop offset="0" stop-color="#959595"/><stop offset="0.99" stop-color="#010101"/></radialGradient><linearGradient id="linear-gradient" x1="3.88" y1="93.11" x2="182.35" y2="93.11" gradientUnits="userSpaceOnUse"><stop offset="0" stop-color="#6b3b48"/><stop offset="0.99" stop-color="#35131f"/></linearGradient><linearGradient id="linear-gradient-2" x1="37.59" y1="148.63" x2="148.63" y2="37.59" gradientUnits="userSpaceOnUse"><stop offset="0" stop-color="#180c3e"/><stop offset="0.99" stop-color="#140f3e"/></linearGradient><linearGradient id="linear-gradient-3" x1="22.85" y1="55.8" x2="162.51" y2="55.8" gradientUnits="userSpaceOnUse"><stop offset="0" stop-color="#3b6e35"/><stop offset="0.99" stop-color="#2c5428"/></linearGradient><linearGradient id="linear-gradient-4" x1="18.85" y1="55.8" x2="92.94" y2="55.8" gradientUnits="userSpaceOnUse"><stop offset="0" stop-color="#1a2c18"/><stop offset="0.99" stop-color="#25362d"/></linearGradient><linearGradient id="linear-gradient-5" x1="92.94" y1="130.07" x2="167.38" y2="130.07" xlink:href="#linear-gradient-4"/><linearGradient id="linear-gradient-6" x1="22.84" y1="130.07" x2="162.51" y2="130.07" xlink:href="#linear-gradient-3"/><linearGradient id="linear-gradient-7" x1="51.34" y1="93.11" x2="134.88" y2="93.11" gradientUnits="userSpaceOnUse"><stop offset="0" stop-color="#fdc010"/><stop offset="0.14" stop-color="#fdc31c"/><stop offset="0.38" stop-color="#fdca3a"/><stop offset="0.7" stop-color="#fed66c"/><stop offset="1" stop-color="#fee39f"/></linearGradient><linearGradient id="linear-gradient-8" x1="69.96" y1="121.2" x2="119.29" y2="61.34" gradientUnits="userSpaceOnUse"><stop offset="0.17" stop-color="#244427"/><stop offset="1" stop-color="#1a2c18"/></linearGradient><radialGradient id="radial-gradient-2" cx="28.25" cy="59.14" r="22.29" gradientTransform="translate(53.47 10.12) scale(1.4)" xlink:href="#linear-gradient-8"/><linearGradient id="linear-gradient-9" x1="95" y1="91.59" x2="80.59" y2="103.23" gradientUnits="userSpaceOnUse"><stop offset="0" stop-color="#3b6e35"/><stop offset="0.95" stop-color="#2e833f"/></linearGradient><radialGradient id="radial-gradient-3" cx="28.27" cy="1.53" r="1.46" gradientTransform="translate(53.47 10.12) scale(1.4)" gradientUnits="userSpaceOnUse"><stop offset="0.22" stop-color="#81a03d"/><stop offset="1" stop-color="#2e1d5d"/></radialGradient><radialGradient id="radial-gradient-4" cx="23.25" cy="1.75" r="1.46" xlink:href="#radial-gradient-3"/><radialGradient id="radial-gradient-5" cx="18.26" cy="2.41" r="1.47" xlink:href="#radial-gradient-3"/><radialGradient id="radial-gradient-6" cx="13.36" cy="3.49" r="1.47" xlink:href="#radial-gradient-3"/><radialGradient id="radial-gradient-7" cx="8.56" cy="5" r="1.47" xlink:href="#radial-gradient-3"/><radialGradient id="radial-gradient-8" cx="3.92" cy="6.93" r="1.47" xlink:href="#radial-gradient-3"/><radialGradient id="radial-gradient-9" cx="-0.54" cy="9.25" r="1.47" xlink:href="#radial-gradient-3"/><radialGradient id="radial-gradient-10" cx="-4.78" cy="11.95" r="1.47" xlink:href="#radial-gradient-3"/><radialGradient id="radial-gradient-11" cx="-8.77" cy="15.01" r="1.47" xlink:href="#radial-gradient-3"/><radialGradient id="radial-gradient-12" cx="-12.48" cy="18.41" r="1.47" xlink:href="#radial-gradient-3"/><radialGradient id="radial-gradient-13" cx="-15.88" cy="22.11" r="1.47" xlink:href="#radial-gradient-3"/><radialGradient id="radial-gradient-14" cx="-18.94" cy="26.1" r="1.47" xlink:href="#radial-gradient-3"/><radialGradient id="radial-gradient-15" cx="-21.64" cy="30.34" r="1.47" xlink:href="#radial-gradient-3"/><radialGradient id="radial-gradient-16" cx="-23.96" cy="34.8" r="1.47" xlink:href="#radial-gradient-3"/><radialGradient id="radial-gradient-17" cx="-25.88" cy="39.44" r="1.47" xlink:href="#radial-gradient-3"/><radialGradient id="radial-gradient-18" cx="-27.4" cy="44.24" r="1.47" xlink:href="#radial-gradient-3"/><radialGradient id="radial-gradient-19" cx="-28.49" cy="49.15" r="1.47" xlink:href="#radial-gradient-3"/><radialGradient id="radial-gradient-20" cx="-29.14" cy="54.13" r="1.46" xlink:href="#radial-gradient-3"/><radialGradient id="radial-gradient-21" cx="-29.36" cy="59.15" r="1.47" xlink:href="#radial-gradient-3"/><radialGradient id="radial-gradient-22" cx="-29.14" cy="64.18" r="1.46" xlink:href="#radial-gradient-3"/><radialGradient id="radial-gradient-23" cx="-28.49" cy="69.16" r="1.47" xlink:href="#radial-gradient-3"/><radialGradient id="radial-gradient-24" cx="-27.4" cy="74.07" r="1.46" xlink:href="#radial-gradient-3"/><radialGradient id="radial-gradient-25" cx="-25.89" cy="78.86" r="1.46" xlink:href="#radial-gradient-3"/><radialGradient id="radial-gradient-26" cx="-23.97" cy="83.51" r="1.46" xlink:href="#radial-gradient-3"/><radialGradient id="radial-gradient-27" cx="-21.64" cy="87.97" r="1.46" xlink:href="#radial-gradient-3"/><radialGradient id="radial-gradient-28" cx="-18.94" cy="92.21" r="1.46" xlink:href="#radial-gradient-3"/><radialGradient id="radial-gradient-29" cx="-15.88" cy="96.19" r="1.46" xlink:href="#radial-gradient-3"/><radialGradient id="radial-gradient-30" cx="-12.49" cy="99.9" r="1.46" xlink:href="#radial-gradient-3"/><radialGradient id="radial-gradient-31" cx="-8.78" cy="103.3" r="1.47" xlink:href="#radial-gradient-3"/><radialGradient id="radial-gradient-32" cx="-4.79" cy="106.36" r="1.46" xlink:href="#radial-gradient-3"/><radialGradient id="radial-gradient-33" cx="-0.55" cy="109.06" r="1.46" xlink:href="#radial-gradient-3"/><radialGradient id="radial-gradient-34" cx="3.91" cy="111.38" r="1.47" xlink:href="#radial-gradient-3"/><radialGradient id="radial-gradient-35" cx="8.55" cy="113.31" r="1.46" xlink:href="#radial-gradient-3"/><radialGradient id="radial-gradient-36" cx="13.35" cy="114.82" r="1.47" xlink:href="#radial-gradient-3"/><radialGradient id="radial-gradient-37" cx="18.25" cy="115.91" r="1.46" xlink:href="#radial-gradient-3"/><radialGradient id="radial-gradient-38" cx="23.24" cy="116.57" r="1.46" xlink:href="#radial-gradient-3"/><radialGradient id="radial-gradient-39" cx="28.26" cy="116.79" r="1.46" xlink:href="#radial-gradient-3"/><radialGradient id="radial-gradient-40" cx="33.28" cy="116.57" r="1.46" xlink:href="#radial-gradient-3"/><radialGradient id="radial-gradient-41" cx="38.27" cy="115.91" r="1.46" xlink:href="#radial-gradient-3"/><radialGradient id="radial-gradient-42" cx="43.18" cy="114.83" r="1.46" xlink:href="#radial-gradient-3"/><radialGradient id="radial-gradient-43" cx="47.97" cy="113.31" r="1.46" xlink:href="#radial-gradient-3"/><radialGradient id="radial-gradient-44" cx="52.62" cy="111.39" r="1.46" xlink:href="#radial-gradient-3"/><radialGradient id="radial-gradient-45" cx="57.07" cy="109.07" r="1.46" xlink:href="#radial-gradient-3"/><radialGradient id="radial-gradient-46" cx="61.31" cy="106.37" r="1.46" xlink:href="#radial-gradient-3"/><radialGradient id="radial-gradient-47" cx="65.3" cy="103.31" r="1.46" xlink:href="#radial-gradient-3"/><radialGradient id="radial-gradient-48" cx="69.01" cy="99.91" r="1.47" xlink:href="#radial-gradient-3"/><radialGradient id="radial-gradient-49" cx="72.41" cy="96.2" r="1.47" xlink:href="#radial-gradient-3"/><radialGradient id="radial-gradient-50" cx="75.47" cy="92.21" r="1.47" xlink:href="#radial-gradient-3"/><radialGradient id="radial-gradient-51" cx="78.17" cy="87.97" r="1.47" xlink:href="#radial-gradient-3"/><radialGradient id="radial-gradient-52" cx="80.49" cy="83.52" r="1.47" xlink:href="#radial-gradient-3"/><radialGradient id="radial-gradient-53" cx="82.42" cy="78.87" r="1.47" xlink:href="#radial-gradient-3"/><radialGradient id="radial-gradient-54" cx="83.93" cy="74.08" r="1.47" xlink:href="#radial-gradient-3"/><radialGradient id="radial-gradient-55" cx="85.02" cy="69.17" r="1.47" xlink:href="#radial-gradient-3"/><radialGradient id="radial-gradient-56" cx="85.68" cy="64.19" r="1.47" xlink:href="#radial-gradient-3"/><radialGradient id="radial-gradient-57" cx="85.9" cy="59.17" r="1.46" xlink:href="#radial-gradient-3"/><radialGradient id="radial-gradient-58" cx="85.68" cy="54.14" r="1.46" xlink:href="#radial-gradient-3"/><radialGradient id="radial-gradient-59" cx="85.02" cy="49.16" r="1.46" xlink:href="#radial-gradient-3"/><radialGradient id="radial-gradient-60" cx="83.93" cy="44.25" r="1.46" xlink:href="#radial-gradient-3"/><radialGradient id="radial-gradient-61" cx="82.42" cy="39.45" r="1.46" xlink:href="#radial-gradient-3"/><radialGradient id="radial-gradient-62" cx="80.49" cy="34.81" r="1.46" xlink:href="#radial-gradient-3"/><radialGradient id="radial-gradient-63" cx="78.17" cy="30.35" r="1.46" xlink:href="#radial-gradient-3"/><radialGradient id="radial-gradient-64" cx="75.47" cy="26.11" r="1.46" xlink:href="#radial-gradient-3"/><radialGradient id="radial-gradient-65" cx="72.41" cy="22.12" r="1.46" xlink:href="#radial-gradient-3"/><radialGradient id="radial-gradient-66" cx="69.01" cy="18.41" r="1.46" xlink:href="#radial-gradient-3"/><radialGradient id="radial-gradient-67" cx="65.31" cy="15.02" r="1.46" xlink:href="#radial-gradient-3"/><radialGradient id="radial-gradient-68" cx="61.32" cy="11.96" r="1.46" xlink:href="#radial-gradient-3"/><radialGradient id="radial-gradient-69" cx="57.08" cy="9.26" r="1.47" xlink:href="#radial-gradient-3"/><radialGradient id="radial-gradient-70" cx="52.62" cy="6.93" r="1.47" xlink:href="#radial-gradient-3"/><radialGradient id="radial-gradient-71" cx="47.98" cy="5.01" r="1.47" xlink:href="#radial-gradient-3"/><radialGradient id="radial-gradient-72" cx="43.18" cy="3.5" r="1.47" xlink:href="#radial-gradient-3"/><radialGradient id="radial-gradient-73" cx="38.28" cy="2.41" r="1.47" xlink:href="#radial-gradient-3"/><radialGradient id="radial-gradient-74" cx="33.29" cy="1.75" r="1.46" xlink:href="#radial-gradient-3"/><linearGradient id="linear-gradient-10" x1="673.64" y1="456.66" x2="665.05" y2="469.07" gradientTransform="translate(-5.61 -746.42) rotate(45)" xlink:href="#linear-gradient-7"/><linearGradient id="linear-gradient-11" x1="479.13" y1="-956.56" x2="468.62" y2="-942.23" gradientTransform="translate(1056.99 -197.47) rotate(-135)" xlink:href="#linear-gradient-7"/><linearGradient id="linear-gradient-12" x1="-63.18" y1="-98.96" x2="-71.54" y2="-90.61" gradientTransform="translate(249.2 151.14) rotate(-45)" xlink:href="#linear-gradient-7"/><linearGradient id="linear-gradient-13" x1="-62.33" y1="-214.75" x2="-69.97" y2="-205.19" gradientTransform="translate(249.2 151.14) rotate(-45)" xlink:href="#linear-gradient-7"/></defs><title>Asset 1</title><g id="Layer_2" data-name="Layer 2"><g id="Layer_1-2" data-name="Layer 1"><path class="cls-1" d="M186.22,93.11A93.11,93.11,0,1,1,93.11,0,93.1,93.1,0,0,1,186.22,93.11Z"/><path class="cls-2" d="M182.35,93.11A89.24,89.24,0,1,1,93.11,3.88,89.24,89.24,0,0,1,182.35,93.11Z"/><path class="cls-3" d="M179,93.11A85.91,85.91,0,1,1,93.11,7.2,85.91,85.91,0,0,1,179,93.11Z"/><path class="cls-4" d="M167.37,92.76A74.26,74.26,0,0,0,93.11,18.84h-.17V92.76Z"/><path class="cls-5" d="M92.94,18.85A74.26,74.26,0,0,0,18.85,92.76H92.94Z"/><path class="cls-6" d="M92.94,167.38h.17a74.27,74.27,0,0,0,74.27-74.27c0-.12,0-.23,0-.35H92.94Z"/><path class="cls-7" d="M92.94,167.38V92.76H18.85c0,.12,0,.23,0,.35A74.28,74.28,0,0,0,92.94,167.38Z"/><path class="cls-8" d="M134.88,93.11a41.77,41.77,0,1,0-41.77,41.77A41.77,41.77,0,0,0,134.88,93.11Z"/><path class="cls-9" d="M133.22,93.11a40.11,40.11,0,1,0-40.11,40.11A40.11,40.11,0,0,0,133.22,93.11Z"/><polygon class="cls-10" points="93.11 61.83 98.64 87.58 124.39 93.11 98.64 98.64 93.11 124.39 87.59 98.64 61.83 93.11 87.59 87.58 93.11 61.83"/><polygon class="cls-11" points="93.11 66.27 97.86 88.37 119.96 93.11 97.86 97.86 93.11 119.95 88.37 97.86 66.27 93.11 88.37 88.37 93.11 66.27"/><path class="cls-12" d="M95.17,12.24a2.06,2.06,0,1,0-2,2.06A2.05,2.05,0,0,0,95.17,12.24Z"/><path class="cls-13" d="M88.12,12.37a2.06,2.06,0,1,0-1.87,2.23A2.06,2.06,0,0,0,88.12,12.37Z"/><path class="cls-14" d="M81.1,13.11a2.06,2.06,0,1,0-1.67,2.38A2.06,2.06,0,0,0,81.1,13.11Z"/><path class="cls-15" d="M74.17,14.46A2.05,2.05,0,1,0,72.72,17,2,2,0,0,0,74.17,14.46Z"/><path class="cls-16" d="M67.39,16.41a2.05,2.05,0,1,0-1.23,2.64A2.06,2.06,0,0,0,67.39,16.41Z"/><path class="cls-17" d="M60.8,19a2.05,2.05,0,1,0-1,2.73A2,2,0,0,0,60.8,19Z"/><path class="cls-18" d="M54.47,22.05a2.05,2.05,0,1,0-.76,2.8A2.05,2.05,0,0,0,54.47,22.05Z"/><path class="cls-19" d="M48.42,25.69a2.05,2.05,0,1,0-.51,2.86A2,2,0,0,0,48.42,25.69Z"/><path class="cls-20" d="M42.71,29.84a2.06,2.06,0,1,0-.25,2.89A2,2,0,0,0,42.71,29.84Z"/><path class="cls-21" d="M37.39,34.47a2.05,2.05,0,1,0,0,2.91A2.06,2.06,0,0,0,37.39,34.47Z"/><path class="cls-22" d="M32.49,39.55a2.06,2.06,0,1,0-2.64,3.15,2.06,2.06,0,0,0,2.64-3.15Z"/><path class="cls-23" d="M28.05,45a2.05,2.05,0,1,0,.51,2.86A2.05,2.05,0,0,0,28.05,45Z"/><path class="cls-24" d="M24.11,50.89a2.05,2.05,0,1,0,.75,2.81A2.07,2.07,0,0,0,24.11,50.89Z"/><path class="cls-25" d="M20.69,57.06A2.06,2.06,0,0,0,19,60.79a2.06,2.06,0,1,0,1.73-3.73Z"/><path class="cls-26" d="M17.83,63.51a2.06,2.06,0,1,0-1.41,3.87,2.06,2.06,0,0,0,1.41-3.87Z"/><path class="cls-27" d="M15.53,70.19A2.05,2.05,0,1,0,17,72.7,2.05,2.05,0,0,0,15.53,70.19Z"/><path class="cls-28" d="M13.83,77a2.05,2.05,0,1,0,1.67,2.37A2,2,0,0,0,13.83,77Z"/><path class="cls-29" d="M12.73,84a2.05,2.05,0,1,0,1.87,2.22A2.05,2.05,0,0,0,12.73,84Z"/><path class="cls-30" d="M12.24,91a2.06,2.06,0,1,0,0,4.12,2.06,2.06,0,0,0,0-4.12Z"/><path class="cls-31" d="M12.37,98.1a2.06,2.06,0,0,0,.36,4.1,2.06,2.06,0,1,0-.36-4.1Z"/><path class="cls-32" d="M13.11,105.12a2.06,2.06,0,1,0,2.39,1.66A2.07,2.07,0,0,0,13.11,105.12Z"/><path class="cls-33" d="M14.46,112.05A2.06,2.06,0,1,0,17,113.5,2.05,2.05,0,0,0,14.46,112.05Z"/><path class="cls-34" d="M16.41,118.83a2.05,2.05,0,1,0,1.41,3.86,2.05,2.05,0,1,0-1.41-3.86Z"/><path class="cls-35" d="M19,125.42a2.05,2.05,0,1,0,1.74,3.72A2.05,2.05,0,1,0,19,125.42Z"/><path class="cls-36" d="M22.05,131.76a2.05,2.05,0,1,0,2.05,3.56,2.05,2.05,0,0,0-2.05-3.56Z"/><path class="cls-37" d="M25.69,137.81a2.05,2.05,0,1,0,2.85.5A2.05,2.05,0,0,0,25.69,137.81Z"/><path class="cls-38" d="M29.83,143.51a2.06,2.06,0,0,0,2.65,3.15,2.06,2.06,0,1,0-2.65-3.15Z"/><path class="cls-39" d="M34.47,148.83a2.05,2.05,0,1,0,2.9,2.91,2.05,2.05,0,0,0-2.9-2.91Z"/><path class="cls-40" d="M39.55,153.73a2.06,2.06,0,1,0,3.15,2.64,2.06,2.06,0,0,0-3.15-2.64Z"/><path class="cls-41" d="M45,158.17a2.06,2.06,0,1,0,2.86-.5A2.06,2.06,0,0,0,45,158.17Z"/><path class="cls-42" d="M50.89,162.11a2.05,2.05,0,1,0,3.56,2,2.05,2.05,0,0,0-3.56-2Z"/><path class="cls-43" d="M57.07,165.53a2.05,2.05,0,1,0,2.72-1A2.05,2.05,0,0,0,57.07,165.53Z"/><path class="cls-44" d="M63.51,168.39A2.07,2.07,0,0,0,64.74,171a2.05,2.05,0,1,0-1.23-2.64Z"/><path class="cls-45" d="M70.19,170.69a2.05,2.05,0,1,0,4,1.06,2.05,2.05,0,0,0-4-1.06Z"/><path class="cls-46" d="M77,172.39a2.07,2.07,0,0,0,1.68,2.38A2.05,2.05,0,1,0,77,172.39Z"/><path class="cls-47" d="M84,173.49a2.05,2.05,0,1,0,4.09.36,2.05,2.05,0,0,0-4.09-.36Z"/><path class="cls-48" d="M91.05,174a2.06,2.06,0,1,0,4.11,0,2.06,2.06,0,0,0-4.11,0Z"/><path class="cls-49" d="M98.1,173.85a2.06,2.06,0,1,0,4.1-.36,2.06,2.06,0,0,0-4.1.36Z"/><path class="cls-50" d="M105.12,173.11a2.06,2.06,0,0,0,4-.71,2.06,2.06,0,1,0-4,.71Z"/><path class="cls-51" d="M112.05,171.76a2.06,2.06,0,1,0,4-1.07,2.06,2.06,0,0,0-4,1.07Z"/><path class="cls-52" d="M118.83,169.81a2.05,2.05,0,1,0,3.86-1.41,2.05,2.05,0,0,0-3.86,1.41Z"/><path class="cls-53" d="M125.42,167.28a2.05,2.05,0,0,0,3.72-1.74,2,2,0,0,0-2.72-1A2,2,0,0,0,125.42,167.28Z"/><path class="cls-54" d="M131.76,164.18a2.06,2.06,0,0,0,3.56-2.06,2.06,2.06,0,0,0-3.56,2.06Z"/><path class="cls-55" d="M137.81,160.54a2.05,2.05,0,1,0,3.36-2.36,2.05,2.05,0,0,0-3.36,2.36Z"/><path class="cls-56" d="M143.51,156.39a2.06,2.06,0,1,0,3.15-2.65,2.06,2.06,0,0,0-3.15,2.65Z"/><path class="cls-57" d="M148.83,151.75a2.06,2.06,0,1,0,2.91-2.91,2.06,2.06,0,0,0-2.91,2.91Z"/><path class="cls-58" d="M153.73,146.67a2.06,2.06,0,1,0,2.64-3.15,2.06,2.06,0,0,0-2.64,3.15Z"/><path class="cls-59" d="M158.17,141.19a2.06,2.06,0,1,0,2.36-3.37,2,2,0,0,0-2.86.51A2.06,2.06,0,0,0,158.17,141.19Z"/><path class="cls-60" d="M162.12,135.33a2.05,2.05,0,1,0,2-3.56,2.05,2.05,0,0,0-2,3.56Z"/><path class="cls-61" d="M165.53,129.16a2.06,2.06,0,1,0,1.74-3.73,2.06,2.06,0,0,0-1.74,3.73Z"/><path class="cls-62" d="M168.39,122.71a2.09,2.09,0,0,0,2.65-1.23,2.06,2.06,0,0,0-1.24-2.63,2.05,2.05,0,0,0-1.41,3.86Z"/><path class="cls-63" d="M170.69,116a2.05,2.05,0,1,0,1.06-4,2.05,2.05,0,0,0-1.06,4Z"/><path class="cls-64" d="M172.39,109.19a2.06,2.06,0,1,0,.71-4,2,2,0,0,0-2.37,1.66A2.06,2.06,0,0,0,172.39,109.19Z"/><path class="cls-65" d="M173.49,102.21a2.05,2.05,0,1,0,.36-4.09,2,2,0,0,0-2.22,1.86A2,2,0,0,0,173.49,102.21Z"/><path class="cls-66" d="M174,95.17a2.05,2.05,0,1,0,0-4.1,2,2,0,0,0-2,2.05A2,2,0,0,0,174,95.17Z"/><path class="cls-67" d="M173.85,88.12a2.05,2.05,0,1,0-.36-4.09,2.05,2.05,0,0,0,.36,4.09Z"/><path class="cls-68" d="M173.11,81.1a2.05,2.05,0,1,0-.72-4,2,2,0,0,0-1.66,2.37A2.06,2.06,0,0,0,173.11,81.1Z"/><path class="cls-69" d="M171.76,74.17a2.05,2.05,0,1,0-1.07-4,2,2,0,0,0-1.45,2.5A2.05,2.05,0,0,0,171.76,74.17Z"/><path class="cls-70" d="M169.81,67.39a2.05,2.05,0,1,0-1.41-3.86,2.05,2.05,0,0,0,1.41,3.86Z"/><path class="cls-71" d="M167.28,60.8a2.06,2.06,0,1,0-2.74-1A2.06,2.06,0,0,0,167.28,60.8Z"/><path class="cls-72" d="M164.18,54.46a2.05,2.05,0,1,0-2.06-3.55,2,2,0,0,0-.75,2.8A2.06,2.06,0,0,0,164.18,54.46Z"/><path class="cls-73" d="M160.54,48.42a2.06,2.06,0,1,0-2.36-3.37,2,2,0,0,0-.51,2.86A2.07,2.07,0,0,0,160.54,48.42Z"/><path class="cls-74" d="M156.39,42.71a2.06,2.06,0,1,0-2.65-3.15,2.06,2.06,0,0,0,2.65,3.15Z"/><path class="cls-75" d="M151.75,37.39a2.05,2.05,0,1,0-2.91-2.9,2,2,0,0,0,0,2.89A2.06,2.06,0,0,0,151.75,37.39Z"/><path class="cls-76" d="M146.67,32.49a2.06,2.06,0,1,0-2.9.25A2.06,2.06,0,0,0,146.67,32.49Z"/><path class="cls-77" d="M141.19,28.05a2.05,2.05,0,1,0-3.37-2.35,2,2,0,0,0,.5,2.85A2.07,2.07,0,0,0,141.19,28.05Z"/><path class="cls-78" d="M135.33,24.11a2,2,0,1,0-3.55-2.05,2,2,0,0,0,.74,2.79A2,2,0,0,0,135.33,24.11Z"/><path class="cls-79" d="M129.16,20.69A2.06,2.06,0,0,0,125.43,19a2,2,0,0,0,1,2.72A2.06,2.06,0,0,0,129.16,20.69Z"/><path class="cls-80" d="M122.71,17.82a2.05,2.05,0,0,0-3.86-1.4,2.05,2.05,0,1,0,3.86,1.4Z"/><path class="cls-81" d="M116,15.53A2.05,2.05,0,0,0,114.58,13a2.08,2.08,0,0,0-2.52,1.46,2.05,2.05,0,0,0,4,1.06Z"/><path class="cls-82" d="M109.18,13.83a2.05,2.05,0,1,0-4-.71,2.05,2.05,0,0,0,4,.71Z"/><path class="cls-83" d="M102.21,12.73a2.05,2.05,0,1,0-4.09-.35A2,2,0,0,0,100,14.59,2,2,0,0,0,102.21,12.73Z"/><path class="cls-84" d="M136.18,55.73c2.11-5.41-.77-8.28-1.57-8.95a7.66,7.66,0,0,0-.83,3,5.54,5.54,0,0,0-1.21-1.8,5.41,5.41,0,1,0-.78,8.43c-.13.13-.22.25-.35.39-2.77,2.76-4.81,2.74-4.81,2.74l2.53,2.53s-.09-2,2.71-4.77l.42-.38a5.5,5.5,0,0,0,.77,6.87,5.59,5.59,0,0,0,3.78,1.63A10.48,10.48,0,0,1,136.18,55.73Z"/><path class="cls-85" d="M140.79,63.9a5.47,5.47,0,0,0-.07-7.73,5.88,5.88,0,0,0-1.8-1.21,7.29,7.29,0,0,0,4.62-2,5.52,5.52,0,0,0-7.81-7.8,6.2,6.2,0,0,0-1.12,1.57c.8.67,3.68,3.54,1.57,8.95a10.48,10.48,0,0,0,.66,9.73A5.36,5.36,0,0,0,140.79,63.9Z"/><path class="cls-84" d="M41.12,139.11a5.73,5.73,0,0,0,8,.06,5.73,5.73,0,0,0,.06,8,5.8,5.8,0,0,0,8.11,0c3.05-2.86,1.88-7.89,2.09-12.35a28.25,28.25,0,0,1,1.31-7.25s0,0,0,0h0v0l0,0a27.77,27.77,0,0,1-7.25,1.31C49,129.12,44,128,41.12,131A5.8,5.8,0,0,0,41.12,139.11Z"/><path class="cls-86" d="M41.09,139.15a5.73,5.73,0,0,0,8,.06,5.77,5.77,0,0,0,.06,8,6,6,0,0,0,5.38,1.49s-3.84-3.29-1-10.22S51.75,129,51.75,129,44,127.8,41.06,130.92A6,6,0,0,0,41.09,139.15Z"/><polygon class="cls-84" points="141.41 128.94 143.5 143.44 129 141.34 126.9 126.85 141.41 128.94"/><path class="cls-87" d="M141.41,128.94l.79,5.06s-2.41,3.47-7.6,1.24-6.33,1.14-6.33,1.14l-1.37-9.53Z"/><path class="cls-84" d="M54.4,52.55C49,51,46.68,52.88,46,53.64c-.08,2.92-.18,5.79,1.76,7.62a4.84,4.84,0,0,0,6.78,0,4.79,4.79,0,0,0,1.06-5.17,13,13,0,0,1,1.1,1c2.57,2.57,2.57,4.44,2.57,4.44l2.3-2.3s-1.8.07-4.41-2.53a13.32,13.32,0,0,1-1-1.13,4.78,4.78,0,0,0,5.15-1.07,4.72,4.72,0,0,0,1.34-2.84C61.78,52.49,59.38,54,54.4,52.55Z"/><path class="cls-88" d="M61.32,47.7C58.92,45.14,54.71,46.12,51,46a22.82,22.82,0,0,1-6.06-1.1l0,0v0h0l0,0A23.05,23.05,0,0,1,46,50.93c0,.88,0,1.8,0,2.71.68-.76,3-2.69,8.4-1.09,5,1.49,7.38-.06,8.26-.91A5,5,0,0,0,61.32,47.7Z"/></g></g></svg>