<svg xmlns="http://www.w3.org/2000/svg" viewBox="0 0 158 197.1"><title>spade</title><g id="Layer_2" data-name="Layer 2"><g id="Layer_1-2" data-name="Layer 1"><path id="path6828-8-3" d="M79,0C41.16,54,.68,85.12,0,127.27c-.23,13.65,7.14,36.85,30.22,41.29,15,2.86,35.6-9.27,36-33.93-.06-4.91,5.2-4.78,5.15,1.94-.71,19.45-6.86,42.1-17.19,60.53h49.56C93.45,178.67,87.3,156,86.59,136.57c0-6.72,5.21-6.85,5.15-1.94.43,24.66,21.05,36.79,36,33.93,23.08-4.44,30.45-27.64,30.22-41.29C157.32,85.12,116.84,54,79,0Z"/></g></g></svg>